<svg width="25" height="24" viewBox="0 0 25 24" fill="none" xmlns="http://www.w3.org/2000/svg">
<path d="M10.3217 15.3975C9.98892 15.1508 9.51921 15.2207 9.27255 15.5534C9.0259 15.8862 9.0957 16.3559 9.42847 16.6026C10.4009 17.3233 11.5901 17.75 12.8751 17.75C14.1601 17.75 15.3493 17.3233 16.3217 16.6026C16.6545 16.3559 16.7243 15.8862 16.4776 15.5534C16.2309 15.2207 15.7612 15.1508 15.4285 15.3975C14.7001 15.9374 13.821 16.25 12.8751 16.25C11.9292 16.25 11.05 15.9374 10.3217 15.3975Z" fill="#444444"/>
<path fill-rule="evenodd" clip-rule="evenodd" d="M12.875 1.25024C12.1499 1.25024 11.4884 1.44936 10.7643 1.78735C10.0633 2.11453 9.25272 2.5974 8.23683 3.20257L6.78122 4.06967C5.66211 4.73631 4.77035 5.26751 4.09515 5.77549C3.39814 6.29987 2.87499 6.83985 2.53407 7.55096C2.19299 8.26243 2.10054 9.00704 2.13019 9.87609C2.1589 10.7173 2.30605 11.7399 2.49056 13.0221L2.78292 15.0539C3.02031 16.7038 3.20868 18.0131 3.49012 19.0324C3.78023 20.0832 4.19186 20.9172 4.93465 21.5568C5.67684 22.1958 6.56484 22.4817 7.65134 22.6179C8.70654 22.7503 10.0378 22.7503 11.7173 22.7502H14.0327C15.7122 22.7503 17.0435 22.7503 18.0987 22.6179C19.1852 22.4817 20.0732 22.1958 20.8154 21.5568C21.5581 20.9172 21.9698 20.0832 22.2599 19.0324C22.5413 18.0131 22.7297 16.7038 22.9671 15.054L23.2594 13.0221C23.444 11.7399 23.5911 10.7173 23.6198 9.87609C23.6495 9.00704 23.557 8.26243 23.2159 7.55096C22.875 6.83985 22.3519 6.29987 21.6549 5.77549C20.9797 5.26751 20.0879 4.73631 18.9688 4.06967L17.5132 3.20257C16.4973 2.5974 15.6867 2.11453 14.9857 1.78735C14.2616 1.44936 13.6001 1.25024 12.875 1.25024ZM8.97058 4.51146C10.0281 3.88151 10.7742 3.43805 11.3987 3.14658C12.0078 2.86228 12.4458 2.75024 12.875 2.75024C13.3043 2.75024 13.7422 2.86228 14.3513 3.14658C14.9758 3.43805 15.7219 3.8815 16.7794 4.51145L18.1643 5.33639C19.3286 6.02997 20.1502 6.52058 20.7531 6.97415C21.3415 7.41686 21.6638 7.78319 21.8633 8.19941C22.0627 8.61529 22.1456 9.09361 22.1207 9.82493C22.0951 10.5748 21.9606 11.5166 21.7686 12.8513L21.4898 14.7887C21.2433 16.5018 21.0671 17.7165 20.814 18.6332C20.5666 19.5291 20.2689 20.0479 19.8366 20.4201C19.4037 20.7928 18.8426 21.0129 17.912 21.1296C16.961 21.2489 15.7238 21.2502 13.9811 21.2502H11.7689C10.0262 21.2502 8.78905 21.2489 7.838 21.1296C6.90746 21.0129 6.34629 20.7928 5.91341 20.4201C5.48114 20.0479 5.18338 19.5291 4.93602 18.6332C4.68291 17.7165 4.5067 16.5018 4.2602 14.7886L3.98143 12.8513C3.78937 11.5165 3.65491 10.5748 3.62932 9.82493C3.60437 9.09361 3.68729 8.61529 3.88667 8.19941C4.08621 7.78319 4.40847 7.41686 4.99694 6.97415C5.59982 6.52058 6.42143 6.02997 7.58574 5.33639L8.97058 4.51146Z" fill="#444444"/>
</svg>
