<svg width="25" height="24" viewBox="0 0 25 24" fill="none" xmlns="http://www.w3.org/2000/svg">
<path fill-rule="evenodd" clip-rule="evenodd" d="M8.98167 5.77133L5.91953 9.91436C4.6348 11.6526 3.99244 12.5217 4.34639 13.205C4.35225 13.2164 4.35829 13.2276 4.3645 13.2387C4.73945 13.9117 5.84888 13.9117 8.06775 13.9117C9.30079 13.9117 9.9173 13.9117 10.304 14.2754L10.324 14.2946L14.196 9.72466L14.176 9.70541C13.7974 9.33386 13.7974 8.74151 13.7974 7.55682V7.24712C13.7974 3.96249 13.7974 2.32018 12.8741 2.03721C11.9507 1.75425 10.961 3.09327 8.98167 5.77133Z" fill="white"/>
<path opacity="0.5" d="M10.7027 16.4432L10.7027 16.7528C10.7027 20.0374 10.7027 21.6798 11.626 21.9627C12.5494 22.2457 13.5391 20.9067 15.5185 18.2286L18.5806 14.0856C19.8654 12.3474 20.5077 11.4783 20.1538 10.7949C20.1479 10.7836 20.1419 10.7724 20.1357 10.7613C19.7607 10.0883 18.6513 10.0883 16.4324 10.0883C15.1994 10.0883 14.5829 10.0883 14.1962 9.72461L10.3242 14.2946C10.7028 14.6661 10.7027 15.2585 10.7027 16.4432Z" fill="white"/>
</svg>
