<svg width="27" height="26" viewBox="0 0 27 26" fill="none" xmlns="http://www.w3.org/2000/svg">
<path d="M11.4582 14.3542C11.0094 14.3542 10.6457 14.7179 10.6457 15.1667C10.6457 15.6154 11.0094 15.9792 11.4582 15.9792H15.7915C16.2402 15.9792 16.604 15.6154 16.604 15.1667C16.604 14.7179 16.2402 14.3542 15.7915 14.3542H11.4582Z" fill="#444444"/>
<path fill-rule="evenodd" clip-rule="evenodd" d="M16.5115 2.52327C16.9128 2.32259 17.4009 2.48528 17.6015 2.88663L19.5659 6.81545C20.0291 6.839 20.4515 6.87497 20.8342 6.92993C21.9779 7.09414 22.9245 7.44717 23.5973 8.27933C24.27 9.11149 24.4168 10.111 24.3378 11.2638C24.2611 12.3809 23.9592 13.7896 23.5818 15.5507L23.0928 17.833C22.8383 19.0208 22.6318 19.9843 22.372 20.737C22.1013 21.5214 21.7444 22.1665 21.1348 22.6593C20.5253 23.152 19.8198 23.3658 18.996 23.4662C18.2056 23.5625 17.2202 23.5625 16.0054 23.5625H11.2443C10.0295 23.5625 9.0441 23.5625 8.25367 23.4662C7.42993 23.3658 6.7244 23.152 6.11487 22.6593C5.50535 22.1665 5.14846 21.5214 4.8777 20.737C4.6179 19.9843 4.41144 19.0208 4.15693 17.833L3.66788 15.5507C3.29048 13.7896 2.98858 12.3809 2.91195 11.2638C2.83289 10.111 2.97973 9.11149 3.65247 8.27933C4.3252 7.44717 5.2718 7.09414 6.4155 6.92993C6.79821 6.87497 7.22056 6.839 7.68369 6.81545L9.6481 2.88663C9.84878 2.48528 10.3368 2.32259 10.7382 2.52327C11.1395 2.72395 11.3022 3.212 11.1015 3.61336L9.52169 6.77306C9.91554 6.77082 10.3301 6.77082 10.7657 6.77083H16.484C16.9195 6.77082 17.3342 6.77082 17.728 6.77306L16.1481 3.61336C15.9474 3.212 16.1101 2.72395 16.5115 2.52327ZM6.83461 8.5136L6.3981 9.38663C6.19742 9.78799 6.3601 10.276 6.76146 10.4767C7.16282 10.6774 7.65086 10.5147 7.85154 10.1134L8.7044 8.40765C9.32233 8.39619 10.0259 8.39583 10.8319 8.39583H16.4178C17.2238 8.39583 17.9273 8.39619 18.5452 8.40764L19.3981 10.1134C19.5988 10.5147 20.0868 10.6774 20.4882 10.4767C20.8895 10.276 21.0522 9.78799 20.8515 9.38663L20.415 8.51359C20.4792 8.52135 20.5419 8.52962 20.6033 8.53843C21.5608 8.67592 22.0307 8.92629 22.3335 9.30093C22.6313 9.66925 22.7778 10.1703 22.7197 11.1042H4.52998C4.47192 10.1703 4.61841 9.66925 4.91617 9.30093C5.21904 8.92629 5.6889 8.67592 6.64645 8.53843C6.7078 8.52962 6.77051 8.52136 6.83461 8.5136ZM5.27069 15.275C5.05728 14.2791 4.87873 13.4431 4.74906 12.7292H22.5007C22.371 13.4431 22.1924 14.2791 21.979 15.275L21.5147 17.4417C21.2467 18.6924 21.0597 19.5586 20.8359 20.2068C20.6195 20.834 20.3975 21.1657 20.1132 21.3956C19.8289 21.6254 19.4581 21.7729 18.7995 21.8531C18.1188 21.9361 17.2326 21.9375 15.9535 21.9375H11.2962C10.0171 21.9375 9.13094 21.9361 8.45024 21.8531C7.79162 21.7729 7.42078 21.6254 7.13648 21.3956C6.85217 21.1657 6.63026 20.834 6.41378 20.2068C6.19004 19.5586 6.003 18.6925 5.73498 17.4417L5.27069 15.275Z" fill="#444444"/>
</svg>
