<svg width="28" height="28" viewBox="0 0 28 28" fill="none" xmlns="http://www.w3.org/2000/svg">
<path fill-rule="evenodd" clip-rule="evenodd" d="M23.9491 12.1023C23.5166 11.3533 22.7241 11.1071 21.9676 11.0013C21.2049 10.8947 20.1842 10.8947 18.9496 10.8947L18.8794 10.8947C18.1442 10.8947 17.6636 10.8875 17.3135 10.8388C16.9968 10.7948 16.8961 10.7296 16.8532 10.6916C16.8217 10.6588 16.7656 10.5821 16.7275 10.3057C16.6824 9.97969 16.6805 9.53269 16.6805 8.81628V8.37937C16.6805 6.52727 16.6805 5.04357 16.538 3.98577C16.4042 2.99286 16.0862 1.87771 14.9846 1.54014C13.9024 1.2085 12.9947 1.91964 12.2892 2.65279C11.5376 3.43381 10.6447 4.64184 9.52687 6.15435L5.86704 11.106C5.15498 12.0694 4.5614 12.8724 4.20772 13.5365C3.85319 14.2022 3.59517 14.9925 3.98842 15.781L3.98979 15.7839L3.99394 15.7923L3.99865 15.8017L4.00328 15.8106L4.00836 15.8201L4.01352 15.8296L4.0184 15.8384L4.02356 15.8475L4.02829 15.8555L4.03003 15.8584C4.45878 16.601 5.24787 16.8609 6.01129 16.9775C6.798 17.0976 7.84775 17.1053 9.12086 17.1053C9.86357 17.1053 10.3371 17.1069 10.685 17.1513C10.9922 17.1905 11.0841 17.2509 11.1235 17.2857C11.1584 17.3221 11.2195 17.4072 11.2627 17.6937C11.3121 18.0216 11.3198 18.4755 11.3198 19.1838L11.3198 19.6205C11.3197 21.4726 11.3197 22.9564 11.4622 24.0142C11.596 25.0071 11.914 26.1223 13.0156 26.4598C14.0978 26.7915 15.0055 26.0803 15.711 25.3472C16.4626 24.5662 17.3555 23.3581 18.4734 21.8456L22.0893 16.9534C22.8252 15.9577 23.4305 15.1259 23.7874 14.4335C24.1367 13.756 24.3804 12.961 23.9908 12.1798L23.9894 12.177L23.9853 12.1685L23.9805 12.1591L23.9759 12.1501L23.9708 12.1406L23.9656 12.131L23.9607 12.1222L23.9555 12.1131L23.9508 12.105L23.9491 12.1023ZM13.5501 3.86626C12.8875 4.55481 12.0618 5.66889 10.8908 7.25328L7.31826 12.0868C6.55095 13.125 6.03757 13.8235 5.75231 14.3591C5.61346 14.6198 5.56133 14.7843 5.54649 14.8839C5.53733 14.9453 5.54292 14.9731 5.55025 14.9909C5.57846 15.0325 5.70099 15.1598 6.27541 15.2475C6.90297 15.3433 7.80529 15.3553 9.12086 15.3553L9.1745 15.3553C9.84782 15.3552 10.4345 15.3552 10.9063 15.4153C11.4117 15.4798 11.9137 15.6263 12.3293 16.0172L12.3361 16.0236L12.3428 16.0302C12.7511 16.431 12.9171 16.928 12.9932 17.4331C13.0659 17.916 13.0698 18.5099 13.0698 19.1838L13.0698 19.545C13.0698 21.4897 13.0717 22.8541 13.1965 23.7805C13.2587 24.2418 13.3423 24.5124 13.4224 24.6635C13.4824 24.7767 13.5169 24.7841 13.5266 24.7862L13.5283 24.7866L13.5301 24.7872C13.5423 24.7914 13.5853 24.8063 13.7179 24.7396C13.8836 24.6562 14.1203 24.4764 14.4501 24.1337C15.1127 23.4452 15.9385 22.3311 17.1095 20.7467L20.682 15.9132C21.445 14.881 21.9533 14.1722 22.232 13.6316C22.4709 13.1683 22.4449 13.0114 22.429 12.9697C22.4028 12.9314 22.2851 12.8127 21.7252 12.7345C21.0986 12.6468 20.202 12.6447 18.8794 12.6447C18.1761 12.6447 17.5661 12.6408 17.0725 12.5721C16.5629 12.5013 16.0597 12.3479 15.6476 11.9604L15.6408 11.954L15.6342 11.9474C15.2221 11.543 15.0632 11.0466 14.9939 10.5451C14.9304 10.085 14.9304 9.51533 14.9305 8.87268L14.9305 8.45496C14.9305 6.51025 14.9285 5.14589 14.8037 4.21947C14.7415 3.75818 14.6579 3.4876 14.5778 3.33649C14.5178 3.22325 14.4833 3.21583 14.4736 3.21375L14.4719 3.21334L14.4701 3.21275C14.4579 3.20853 14.4149 3.19369 14.2823 3.26042C14.1166 3.34379 13.8799 3.52355 13.5501 3.86626Z" fill="#B6B6B6"/>
</svg>
