<svg width="14" height="14" viewBox="0 0 14 14" fill="none" xmlns="http://www.w3.org/2000/svg">
<path fill-rule="evenodd" clip-rule="evenodd" d="M8.42714 9.5533L11.8378 6.15286C12.329 5.66315 12.5746 5.41829 12.704 5.10692C12.8333 4.79555 12.8333 4.44928 12.8333 3.75673V3.42587C12.8333 2.36091 12.8333 1.82843 12.5015 1.49759C12.1696 1.16675 11.6356 1.16675 10.5674 1.16675H10.2356C9.54092 1.16675 9.19359 1.16675 8.88129 1.29572C8.56898 1.4247 8.32339 1.66955 7.8322 2.15926L4.42153 5.5597C3.84758 6.13193 3.4917 6.48675 3.35389 6.82944C3.31035 6.93773 3.28857 7.0448 3.28857 7.15714C3.28857 7.62502 3.66623 8.00154 4.42153 8.75458L4.52304 8.85578L5.71218 7.64891C5.88177 7.4768 6.15877 7.47475 6.33088 7.64433C6.503 7.81392 6.50505 8.09092 6.33546 8.26303L5.1427 9.47358L5.22265 9.5533C5.97796 10.3063 6.35561 10.6829 6.8249 10.6829C6.92859 10.6829 7.0278 10.6645 7.12761 10.6277C7.47951 10.4981 7.83872 10.1399 8.42714 9.5533ZM10.0295 5.55995C9.58701 6.00107 8.86966 6.00107 8.42721 5.55995C7.98477 5.11883 7.98477 4.40363 8.42721 3.96251C8.86966 3.52139 9.58701 3.52139 10.0295 3.96251C10.4719 4.40363 10.4719 5.11883 10.0295 5.55995Z" fill="#D9302C"/>
<g opacity="0.5">
<path d="M5.26984 3.47844L3.78634 4.9575C3.51365 5.22935 3.26352 5.47873 3.06598 5.70416C2.93912 5.84893 2.81235 6.00738 2.70497 6.18246L2.69051 6.16805C2.66308 6.1407 2.64934 6.127 2.63556 6.11363C2.37771 5.86345 2.07441 5.66453 1.74188 5.52752C1.72411 5.5202 1.70607 5.51306 1.67 5.49876L1.44913 5.41124C1.1499 5.29267 1.07015 4.90746 1.29784 4.68046C1.95129 4.02899 2.73586 3.2468 3.11449 3.0897C3.44842 2.95115 3.80914 2.90505 4.15705 2.95646C4.47582 3.00357 4.77737 3.16731 5.26984 3.47844Z" fill="#D9302C"/>
<path d="M7.80291 11.266C7.92245 11.3873 8.00185 11.4731 8.07361 11.5646C8.16832 11.6855 8.253 11.8138 8.32681 11.9484C8.4099 12.0999 8.4744 12.2617 8.60341 12.5853C8.70844 12.8488 9.05734 12.9184 9.25999 12.7164L9.30902 12.6675C9.96246 12.016 10.747 11.2338 10.9046 10.8563C11.0435 10.5234 11.0898 10.1637 11.0382 9.81685C10.991 9.49908 10.8268 9.19847 10.5148 8.70759L9.02632 10.1916C8.74746 10.4696 8.49177 10.7246 8.26051 10.9243C8.12194 11.044 7.97031 11.1636 7.80291 11.266Z" fill="#D9302C"/>
</g>
</svg>
