<svg width="28" height="28" viewBox="0 0 28 28" fill="none" xmlns="http://www.w3.org/2000/svg">
<path opacity="0.5" d="M3.55273 13.7083C3.69953 14.5417 3.90624 15.5064 4.14774 16.6334L4.64774 18.9667C5.21588 21.618 5.49994 22.9437 6.46253 23.7218C7.42511 24.5 8.78086 24.5 11.4924 24.5H16.5079C19.2194 24.5 20.5751 24.5 21.5377 23.7218C22.5003 22.9437 22.7843 21.618 23.3525 18.9667L23.8525 16.6334C24.094 15.5064 24.3007 14.5417 24.4475 13.7083H3.55273Z" fill="#D9302C"/>
<path fill-rule="evenodd" clip-rule="evenodd" d="M10.7915 16.3333C10.7915 15.8501 11.1833 15.4583 11.6665 15.4583H16.3332C16.8164 15.4583 17.2082 15.8501 17.2082 16.3333C17.2082 16.8166 16.8164 17.2083 16.3332 17.2083H11.6665C11.1833 17.2083 10.7915 16.8166 10.7915 16.3333Z" fill="#D9302C"/>
<path d="M9.71781 3.1087C9.93393 2.67647 10.4595 2.50127 10.8917 2.71738C11.324 2.9335 11.4992 3.45909 11.2831 3.89132L9.14232 8.17281C9.70602 8.16666 10.3211 8.16666 10.9925 8.16666H17.008C17.6796 8.16666 18.2948 8.16666 18.8586 8.17281L16.7178 3.89132C16.5017 3.45909 16.6769 2.9335 17.1091 2.71738C17.5414 2.50127 18.0669 2.67647 18.2831 3.1087L20.8511 8.24474C22.4296 8.36602 23.4202 8.67567 24.0593 9.46629C24.5673 10.0946 24.7317 10.8764 24.6713 11.9583H24.5005C24.5587 11.9583 24.6156 11.964 24.6706 11.9749C24.6413 12.4819 24.563 13.0548 24.4479 13.7083H3.55317C3.43805 13.0548 3.35978 12.4819 3.33049 11.9748C3.38548 11.964 3.44233 11.9583 3.50051 11.9583H3.32928C3.26888 10.8764 3.43328 10.0946 3.94124 9.46629C4.58043 8.67562 5.57109 8.36598 7.1498 8.24472L9.71781 3.1087Z" fill="#D9302C"/>
</svg>
