<svg width="28" height="28" viewBox="0 0 28 28" fill="none" xmlns="http://www.w3.org/2000/svg">
<path fill-rule="evenodd" clip-rule="evenodd" d="M21.1675 4.23596C19.8025 4.47878 17.9623 5.08972 15.3796 5.95059L9.53315 7.89942C7.45645 8.59165 5.95229 9.09379 4.88988 9.54566C3.77913 10.0181 3.384 10.3474 3.25567 10.5681C2.8604 11.248 2.8604 12.0878 3.25567 12.7677C3.384 12.9884 3.77913 13.3177 4.88987 13.7902C5.95229 14.242 7.45645 14.7442 9.53315 15.4364C9.56594 15.4473 9.59832 15.4581 9.6303 15.4687C10.1975 15.6574 10.6385 15.8041 11.0178 16.058C11.3832 16.3027 11.6972 16.6166 11.9418 16.9821C12.1958 17.3614 12.3424 17.8023 12.5311 18.3695C12.5417 18.4015 12.5525 18.4339 12.5634 18.4667C13.2557 20.5434 13.7578 22.0475 14.2097 23.11C14.6821 24.2207 15.0114 24.6158 15.2321 24.7442C15.9121 25.1394 16.7518 25.1394 17.4317 24.7442C17.6525 24.6158 17.9818 24.2207 18.4542 23.11C18.906 22.0475 19.4082 20.5434 20.1004 18.4667L22.0492 12.6202C22.9101 10.0376 23.5211 8.19731 23.7639 6.83234C24.0078 5.46086 23.8214 4.87829 23.4715 4.52836C23.1215 4.17844 22.539 3.99199 21.1675 4.23596ZM20.8535 2.47096C22.3727 2.2007 23.741 2.26264 24.7391 3.26072C25.7372 4.2588 25.7991 5.62709 25.5289 7.14632C25.2602 8.65637 24.6052 10.6215 23.7758 13.1095L21.7868 19.0767C21.1119 21.1014 20.5875 22.6746 20.1039 23.8116C19.6374 24.9084 19.1194 25.8366 18.3327 26.294C17.0958 27.0131 15.5681 27.0131 14.3311 26.294C13.5444 25.8366 13.0264 24.9084 12.56 23.8116C12.0764 22.6746 11.552 21.1014 10.8771 19.0768L10.8627 19.0336C10.6263 18.3243 10.5542 18.1319 10.4521 17.9793C10.3378 17.8086 10.1912 17.662 10.0205 17.5477C9.86797 17.4456 9.67557 17.3736 8.96625 17.1371L8.92303 17.1227C6.89841 16.4478 5.32524 15.9235 4.18822 15.4399C3.09146 14.9734 2.1632 14.4554 1.70583 13.6687C0.986729 12.4318 0.986729 10.9041 1.70583 9.66712C2.1632 8.88039 3.09146 8.36243 4.18823 7.89596C5.32525 7.41236 6.89845 6.88797 8.92311 6.21308L14.8904 4.22399C17.3783 3.39464 19.3435 2.73958 20.8535 2.47096ZM20.6273 7.37953C20.9754 7.73152 20.9723 8.29905 20.6203 8.64715L15.8397 13.375C15.4877 13.7231 14.9202 13.72 14.5721 13.368C14.224 13.016 14.2271 12.4485 14.5791 12.1004L19.3597 7.37251C19.7117 7.0244 20.2792 7.02755 20.6273 7.37953Z" fill="#B6B6B6"/>
</svg>
