<svg width="28" height="28" viewBox="0 0 28 28" fill="none" xmlns="http://www.w3.org/2000/svg">
<path fill-rule="evenodd" clip-rule="evenodd" d="M14 9.62498C11.5838 9.62498 9.625 11.5837 9.625 14C9.625 16.4162 11.5838 18.375 14 18.375C16.4162 18.375 18.375 16.4162 18.375 14C18.375 11.5837 16.4162 9.62498 14 9.62498ZM11.375 14C11.375 12.5502 12.5503 11.375 14 11.375C15.4497 11.375 16.625 12.5502 16.625 14C16.625 15.4497 15.4497 16.625 14 16.625C12.5503 16.625 11.375 15.4497 11.375 14Z" fill="#B6B6B6"/>
<path fill-rule="evenodd" clip-rule="evenodd" d="M14 1.45831C13.178 1.45831 12.4272 1.68417 11.6067 2.06541C10.8128 2.4343 9.89379 2.97852 8.74366 3.65964L7.86506 4.17995C6.71455 4.86127 5.79566 5.40543 5.08756 5.92599C4.35534 6.46429 3.79373 7.01527 3.38724 7.73745C2.98139 8.45848 2.79815 9.22942 2.71023 10.1442C2.62498 11.0313 2.62499 12.1176 2.625 13.482V14.518C2.62499 15.8824 2.62498 16.9687 2.71023 17.8557C2.79815 18.7705 2.98139 19.5415 3.38724 20.2625C3.79373 20.9847 4.35534 21.5357 5.08756 22.074C5.79567 22.5945 6.71455 23.1387 7.86507 23.82L8.7437 24.3403C9.89377 25.0214 10.8128 25.5657 11.6067 25.9346C12.4272 26.3158 13.178 26.5416 14 26.5416C14.822 26.5416 15.5728 26.3158 16.3933 25.9346C17.1872 25.5657 18.1062 25.0214 19.2563 24.3403L20.1349 23.82C21.2854 23.1387 22.2043 22.5945 22.9124 22.074C23.6447 21.5357 24.2063 20.9847 24.6128 20.2625C25.0186 19.5415 25.2019 18.7705 25.2898 17.8557C25.375 16.9687 25.375 15.8824 25.375 14.518V13.482C25.375 12.1176 25.375 11.0313 25.2898 10.1442C25.2019 9.22942 25.0186 8.45848 24.6128 7.73745C24.2063 7.01527 23.6447 6.46429 22.9124 5.92599C22.2043 5.40543 21.2855 4.86128 20.135 4.17997L19.2563 3.65964C18.1062 2.97852 17.1872 2.4343 16.3933 2.06541C15.5728 1.68417 14.822 1.45831 14 1.45831ZM9.59612 5.18866C10.7944 4.47901 11.6387 3.9802 12.3441 3.65245C13.0319 3.33287 13.5225 3.20831 14 3.20831C14.4775 3.20831 14.9681 3.33287 15.6559 3.65245C16.3613 3.9802 17.2056 4.47901 18.4039 5.18866L19.2044 5.66273C20.4026 6.37228 21.2461 6.87298 21.8759 7.33598C22.4895 7.78709 22.8445 8.16368 23.0877 8.59584C23.3316 9.02915 23.4733 9.5362 23.5478 10.3116C23.6241 11.1053 23.625 12.1077 23.625 13.5259V14.474C23.625 15.8923 23.6241 16.8947 23.5478 17.6883C23.4733 18.4638 23.3316 18.9708 23.0877 19.4041C22.8445 19.8363 22.4895 20.2129 21.8759 20.664C21.2461 21.127 20.4026 21.6277 19.2044 22.3372L18.4039 22.8113C17.2056 23.5209 16.3613 24.0198 15.6559 24.3475C14.9681 24.6671 14.4775 24.7916 14 24.7916C13.5225 24.7916 13.0319 24.6671 12.3441 24.3475C11.6387 24.0198 10.7944 23.5209 9.59612 22.8113L8.7956 22.3372C7.59744 21.6277 6.75391 21.127 6.12411 20.664C5.51047 20.2129 5.1555 19.8363 4.91225 19.4041C4.66835 18.9708 4.52673 18.4638 4.45221 17.6883C4.37593 16.8947 4.375 15.8923 4.375 14.474V13.5259C4.375 12.1077 4.37593 11.1053 4.45221 10.3116C4.52673 9.5362 4.66835 9.02915 4.91225 8.59584C5.1555 8.16368 5.51047 7.78709 6.12411 7.33598C6.75391 6.87298 7.59744 6.37228 8.7956 5.66273L9.59612 5.18866Z" fill="#B6B6B6"/>
</svg>
