<svg width="28" height="28" viewBox="0 0 28 28" fill="none" xmlns="http://www.w3.org/2000/svg">
<path d="M18.6668 12.25C18.6668 13.2165 18.1445 14 17.5002 14C16.8558 14 16.3335 13.2165 16.3335 12.25C16.3335 11.2835 16.8558 10.5 17.5002 10.5C18.1445 10.5 18.6668 11.2835 18.6668 12.25Z" fill="#B6B6B6"/>
<path d="M11.6668 12.25C11.6668 13.2165 11.1445 14 10.5002 14C9.85583 14 9.3335 13.2165 9.3335 12.25C9.3335 11.2835 9.85583 10.5 10.5002 10.5C11.1445 10.5 11.6668 11.2835 11.6668 12.25Z" fill="#B6B6B6"/>
<path fill-rule="evenodd" clip-rule="evenodd" d="M13.9332 1.45834H14.0671C16.7602 1.45833 18.8708 1.45832 20.5175 1.67971C22.203 1.90633 23.5331 2.37922 24.577 3.42317C25.621 4.46711 26.0938 5.79714 26.3205 7.48267C26.5419 9.1294 26.5418 11.2399 26.5418 13.9331V17.5C26.5418 22.4936 22.4937 26.5417 17.5002 26.5417H13.9332C11.2401 26.5417 9.12956 26.5417 7.48282 26.3203C5.79729 26.0937 4.46727 25.6208 3.42332 24.5769C2.37938 23.5329 1.90648 22.2029 1.67987 20.5174C1.45847 18.8706 1.45848 16.7601 1.4585 14.067V13.9331C1.45848 11.2399 1.45847 9.1294 1.67987 7.48267C1.90648 5.79714 2.37938 4.46711 3.42332 3.42317C4.46727 2.37922 5.79729 1.90633 7.48282 1.67971C9.12955 1.45832 11.2401 1.45833 13.9332 1.45834ZM7.716 3.41411C6.22453 3.61463 5.32536 3.99601 4.66076 4.66061C3.99616 5.32521 3.61479 6.22438 3.41426 7.71585C3.21036 9.23249 3.2085 11.2254 3.2085 14C3.2085 16.7746 3.21036 18.7675 3.41426 20.2842C3.61479 21.7756 3.99616 22.6748 4.66076 23.3394C5.32536 24.004 6.22453 24.3854 7.716 24.5859C9.23265 24.7898 11.2256 24.7917 14.0002 24.7917H16.6256C16.6296 23.1977 16.6642 22.1506 16.9535 21.2604C17.1577 20.6319 17.4507 20.0452 17.818 19.5147C16.7228 20.2675 15.4109 20.7083 14.0002 20.7083C12.501 20.7083 11.1136 20.2105 9.97912 19.3696C9.59089 19.0819 9.50945 18.5339 9.79722 18.1456C10.085 17.7574 10.633 17.676 11.0212 17.9637C11.8709 18.5936 12.8966 18.9583 14.0002 18.9583C15.1037 18.9583 16.1294 18.5936 16.9791 17.9637C17.3673 17.676 17.9153 17.7574 18.2031 18.1456C18.355 18.3506 18.404 18.6001 18.3594 18.8323C19.1352 17.9749 20.1303 17.3206 21.2605 16.9533C22.1508 16.6641 23.1978 16.6294 24.7918 16.6255V14C24.7918 11.2254 24.79 9.23249 24.5861 7.71585C24.3855 6.22438 24.0042 5.32521 23.3396 4.66061C22.675 3.99601 21.7758 3.61463 20.2843 3.41411C18.7677 3.2102 16.7748 3.20834 14.0002 3.20834C11.2256 3.20834 9.23265 3.2102 7.716 3.41411ZM24.7397 18.3765C23.1564 18.3833 22.4073 18.4208 21.8013 18.6177C20.2918 19.1082 19.1083 20.2916 18.6178 21.8011C18.421 22.4071 18.3835 23.1563 18.3766 24.7395C21.7031 24.341 24.3412 21.7029 24.7397 18.3765Z" fill="#B6B6B6"/>
</svg>
