<svg width="27" height="26" viewBox="0 0 27 26" fill="none" xmlns="http://www.w3.org/2000/svg">
<path opacity="0.5" d="M12.6761 23.8334H15.0726C18.8064 23.8334 20.6733 23.8334 21.9462 22.7372C23.2192 21.6411 23.4832 19.8062 24.0113 16.1365V16.1365L24.3133 14.0377C24.7243 11.1809 24.9299 9.7525 24.3444 8.53121C23.7589 7.30992 22.5126 6.56755 20.0202 5.08281L18.52 4.18913C16.2566 2.84083 15.1249 2.16669 13.8743 2.16669C12.6238 2.16669 11.4921 2.84083 9.22874 4.18913L7.7285 5.08281L7.7285 5.08282C5.23605 6.56756 3.98983 7.30992 3.40433 8.53121C2.81883 9.7525 3.02436 11.1809 3.43543 14.0377L3.73742 16.1365C4.26546 19.8062 4.52948 21.6411 5.80246 22.7372C7.07545 23.8334 8.94233 23.8334 12.6761 23.8334Z" fill="#D9302C"/>
<path d="M11.1089 16.6801C10.7484 16.4129 10.2395 16.4885 9.97232 16.849C9.7051 17.2095 9.78072 17.7184 10.1412 17.9856C11.1947 18.7665 12.483 19.2287 13.8751 19.2287C15.2671 19.2287 16.5554 18.7665 17.6089 17.9856C17.9694 17.7184 18.045 17.2095 17.7778 16.849C17.5106 16.4885 17.0017 16.4129 16.6412 16.6801C15.8522 17.265 14.8998 17.6037 13.8751 17.6037C12.8503 17.6037 11.8979 17.265 11.1089 16.6801Z" fill="#D9302C"/>
</svg>
