<svg width="27" height="26" viewBox="0 0 27 26" fill="none" xmlns="http://www.w3.org/2000/svg">
<path fill-rule="evenodd" clip-rule="evenodd" d="M2.29102 7.18701C2.29102 4.41436 4.53869 2.16669 7.31134 2.16669C10.084 2.16669 12.3317 4.41436 12.3317 7.18701C12.3317 9.95966 10.084 12.2073 7.31134 12.2073C4.53869 12.2073 2.29102 9.95966 2.29102 7.18701Z" fill="#D9302C"/>
<path opacity="0.5" fill-rule="evenodd" clip-rule="evenodd" d="M13.918 18.813C13.918 16.0403 16.1656 13.7927 18.9383 13.7927C21.7109 13.7927 23.9586 16.0403 23.9586 18.813C23.9586 21.5856 21.7109 23.8333 18.9383 23.8333C16.1656 23.8333 13.918 21.5856 13.918 18.813Z" fill="#D9302C"/>
<path d="M2.29102 18.9583C2.29102 16.6602 2.29102 15.5112 3.00494 14.7972C3.71887 14.0833 4.86792 14.0833 7.16602 14.0833C9.46411 14.0833 10.6132 14.0833 11.3271 14.7972C12.041 15.5112 12.041 16.6602 12.041 18.9583C12.041 21.2564 12.041 22.4055 11.3271 23.1194C10.6132 23.8333 9.46411 23.8333 7.16602 23.8333C4.86792 23.8333 3.71887 23.8333 3.00494 23.1194C2.29102 22.4055 2.29102 21.2564 2.29102 18.9583Z" fill="#D9302C"/>
<path opacity="0.5" d="M14.209 7.04169C14.209 4.74359 14.209 3.59454 14.9229 2.88061C15.6368 2.16669 16.7859 2.16669 19.084 2.16669C21.3821 2.16669 22.5311 2.16669 23.2451 2.88061C23.959 3.59454 23.959 4.74359 23.959 7.04169C23.959 9.33978 23.959 10.4888 23.2451 11.2028C22.5311 11.9167 21.3821 11.9167 19.084 11.9167C16.7859 11.9167 15.6368 11.9167 14.9229 11.2028C14.209 10.4888 14.209 9.33978 14.209 7.04169Z" fill="#D9302C"/>
</svg>
