<svg width="27" height="26" viewBox="0 0 27 26" fill="none" xmlns="http://www.w3.org/2000/svg">
<path fill-rule="evenodd" clip-rule="evenodd" d="M19.0277 1.89581C18.0543 1.89578 17.2426 1.89576 16.5983 1.98239C15.9182 2.07383 15.3042 2.27497 14.8107 2.76839C14.3173 3.26182 14.1162 3.87585 14.0247 4.55596C13.9381 5.2003 13.9381 6.01195 13.9382 6.98529V7.09798C13.9381 8.07132 13.9381 8.883 14.0247 9.52734C14.1162 10.2074 14.3173 10.8215 14.8107 11.3149C15.3042 11.8083 15.9182 12.0095 16.5983 12.1009C17.2426 12.1875 18.0543 12.1875 19.0276 12.1875H19.1403C20.1137 12.1875 20.9253 12.1875 21.5697 12.1009C22.2498 12.0095 22.8638 11.8083 23.3572 11.3149C23.8507 10.8215 24.0518 10.2074 24.1433 9.52734C24.2299 8.88299 24.2299 8.07133 24.2298 7.09798V6.98532C24.2299 6.01197 24.2299 5.20031 24.1433 4.55596C24.0518 3.87585 23.8507 3.26182 23.3572 2.76839C22.8638 2.27497 22.2498 2.07383 21.5697 1.98239C20.9253 1.89576 20.1137 1.89578 19.1403 1.89581H19.0277ZM15.9598 3.91744C16.101 3.77627 16.3149 3.66011 16.8148 3.5929C17.3381 3.52254 18.0396 3.52082 19.084 3.52082C20.1283 3.52082 20.8299 3.52254 21.3531 3.5929C21.8531 3.66011 22.067 3.77627 22.2082 3.91744C22.3494 4.05862 22.4655 4.27257 22.5327 4.77249C22.6031 5.29578 22.6048 5.9973 22.6048 7.04165C22.6048 8.086 22.6031 8.78752 22.5327 9.31081C22.4655 9.81072 22.3494 10.0247 22.2082 10.1659C22.067 10.307 21.8531 10.4232 21.3531 10.4904C20.8299 10.5608 20.1283 10.5625 19.084 10.5625C18.0396 10.5625 17.3381 10.5608 16.8148 10.4904C16.3149 10.4232 16.101 10.307 15.9598 10.1659C15.8186 10.0247 15.7024 9.81072 15.6352 9.31081C15.5649 8.78752 15.5632 8.086 15.5632 7.04165C15.5632 5.9973 15.5649 5.29578 15.6352 4.77249C15.7024 4.27257 15.8186 4.05862 15.9598 3.91744Z" fill="#444444"/>
<path fill-rule="evenodd" clip-rule="evenodd" d="M7.11099 13.8125C6.13765 13.8125 5.32598 13.8124 4.68163 13.8991C4.00152 13.9905 3.38749 14.1916 2.89407 14.6851C2.40064 15.1785 2.1995 15.7925 2.10806 16.4726C2.02143 17.117 2.02145 17.9286 2.02149 18.902V19.0146C2.02145 19.988 2.02143 20.7997 2.10806 21.444C2.1995 22.1241 2.40064 22.7381 2.89407 23.2316C3.38749 23.725 4.00152 23.9261 4.68163 24.0176C5.32598 24.1042 6.13764 24.1042 7.11099 24.1042H7.22365C8.197 24.1042 9.00866 24.1042 9.65301 24.0176C10.3331 23.9261 10.9472 23.725 11.4406 23.2316C11.934 22.7381 12.1351 22.1241 12.2266 21.444C12.3132 20.7997 12.3132 19.988 12.3132 19.0147V18.902C12.3132 17.9286 12.3132 17.117 12.2266 16.4726C12.1351 15.7925 11.934 15.1785 11.4406 14.6851C10.9472 14.1916 10.3331 13.9905 9.65301 13.8991C9.00867 13.8124 8.19702 13.8125 7.22368 13.8125H7.11099ZM4.04311 15.8341C4.18429 15.6929 4.39825 15.5768 4.89816 15.5096C5.42145 15.4392 6.12298 15.4375 7.16732 15.4375C8.21167 15.4375 8.91319 15.4392 9.43648 15.5096C9.9364 15.5768 10.1504 15.6929 10.2915 15.8341C10.4327 15.9753 10.5489 16.1892 10.6161 16.6892C10.6864 17.2124 10.6882 17.914 10.6882 18.9583C10.6882 20.0027 10.6864 20.7042 10.6161 21.2275C10.5489 21.7274 10.4327 21.9413 10.2915 22.0825C10.1504 22.2237 9.9364 22.3399 9.43648 22.4071C8.91319 22.4774 8.21167 22.4792 7.16732 22.4792C6.12298 22.4792 5.42145 22.4774 4.89816 22.4071C4.39825 22.3399 4.18429 22.2237 4.04311 22.0825C3.90194 21.9413 3.78578 21.7274 3.71857 21.2275C3.64821 20.7042 3.64649 20.0027 3.64649 18.9583C3.64649 17.914 3.64821 17.2124 3.71857 16.6892C3.78578 16.1892 3.90194 15.9753 4.04311 15.8341Z" fill="#444444"/>
<path fill-rule="evenodd" clip-rule="evenodd" d="M2.02149 7.04165C2.02149 4.19968 4.32536 1.89582 7.16732 1.89582C10.0093 1.89582 12.3132 4.19968 12.3132 7.04165C12.3132 9.88362 10.0093 12.1875 7.16732 12.1875C4.32536 12.1875 2.02149 9.88362 2.02149 7.04165ZM7.16732 3.52082C5.22282 3.52082 3.64649 5.09715 3.64649 7.04165C3.64649 8.98615 5.22282 10.5625 7.16732 10.5625C9.11182 10.5625 10.6882 8.98615 10.6882 7.04165C10.6882 5.09715 9.11182 3.52082 7.16732 3.52082Z" fill="#444444"/>
<path fill-rule="evenodd" clip-rule="evenodd" d="M13.9382 18.9583C13.9382 16.1164 16.242 13.8125 19.084 13.8125C21.926 13.8125 24.2298 16.1164 24.2298 18.9583C24.2298 21.8003 21.926 24.1042 19.084 24.1042C16.242 24.1042 13.9382 21.8003 13.9382 18.9583ZM19.084 15.4375C17.1395 15.4375 15.5632 17.0138 15.5632 18.9583C15.5632 20.9028 17.1395 22.4792 19.084 22.4792C21.0285 22.4792 22.6048 20.9028 22.6048 18.9583C22.6048 17.0138 21.0285 15.4375 19.084 15.4375Z" fill="#444444"/>
</svg>
