<svg width="28" height="28" viewBox="0 0 28 28" fill="none" xmlns="http://www.w3.org/2000/svg">
<path fill-rule="evenodd" clip-rule="evenodd" d="M22.1145 1.45832C21.6095 1.45826 21.1465 1.4582 20.7699 1.50884C20.3552 1.5646 19.9169 1.69578 19.5563 2.05631C19.1958 2.41684 19.0646 2.85519 19.0089 3.26991C18.9582 3.64652 18.9583 4.10949 18.9583 4.61443V19.8855C18.9583 20.3905 18.9582 20.8535 19.0089 21.2301C19.0646 21.6448 19.1958 22.0831 19.5563 22.4437C19.9169 22.8042 20.3552 22.9354 20.7699 22.9911C21.1465 23.0418 21.6095 23.0417 22.1145 23.0417H22.2189C22.7238 23.0417 23.1868 23.0418 23.5634 22.9911C23.9781 22.9354 24.4165 22.8042 24.777 22.4437C25.1375 22.0831 25.2687 21.6448 25.3245 21.2301C25.3751 20.8534 25.3751 20.3905 25.375 19.8855V4.61445C25.3751 4.1095 25.3751 3.64653 25.3245 3.26991C25.2687 2.85519 25.1375 2.41684 24.777 2.05631C24.4165 1.69578 23.9781 1.5646 23.5634 1.50884C23.1868 1.4582 22.7238 1.45826 22.2189 1.45832H22.1145ZM20.7966 3.29216L20.7938 3.29376L20.7922 3.2966C20.791 3.29886 20.7891 3.30273 20.7867 3.30861C20.7762 3.33402 20.7584 3.39044 20.7433 3.5031C20.7102 3.74894 20.7083 4.09195 20.7083 4.66665V19.8333C20.7083 20.408 20.7102 20.751 20.7433 20.9969C20.7584 21.1095 20.7762 21.166 20.7867 21.1914C20.7891 21.1972 20.791 21.2011 20.7922 21.2034L20.7938 21.2062L20.7966 21.2078C20.7976 21.2083 20.7988 21.2089 20.8004 21.2097C20.8025 21.2107 20.8052 21.2119 20.8086 21.2133C20.834 21.2238 20.8905 21.2416 21.0031 21.2567C21.249 21.2898 21.592 21.2917 22.1667 21.2917C22.7414 21.2917 23.0844 21.2898 23.3302 21.2567C23.4429 21.2416 23.4993 21.2238 23.5247 21.2133C23.5306 21.2109 23.5345 21.209 23.5367 21.2078L23.5396 21.2062L23.5412 21.2034C23.5423 21.2011 23.5442 21.1972 23.5467 21.1914C23.5571 21.166 23.575 21.1095 23.5901 20.9969C23.6231 20.751 23.625 20.408 23.625 19.8333V4.66665C23.625 4.09195 23.6231 3.74894 23.5901 3.5031C23.575 3.39044 23.5571 3.33402 23.5467 3.30861C23.5442 3.30273 23.5423 3.29886 23.5412 3.2966L23.5396 3.29376L23.5367 3.29216C23.5345 3.29098 23.5306 3.28909 23.5247 3.28667C23.4993 3.27622 23.4429 3.25838 23.3302 3.24323C23.0844 3.21018 22.7414 3.20832 22.1667 3.20832C21.592 3.20832 21.249 3.21018 21.0031 3.24323C20.8905 3.25838 20.834 3.27622 20.8086 3.28667C20.8027 3.28909 20.7989 3.29098 20.7966 3.29216Z" fill="#B6B6B6"/>
<path fill-rule="evenodd" clip-rule="evenodd" d="M13.9478 4.95832H14.0522C14.5572 4.95826 15.0201 4.9582 15.3967 5.00884C15.8115 5.0646 16.2498 5.19578 16.6104 5.55631C16.9709 5.91684 17.1021 6.35519 17.1578 6.76991C17.2085 7.14652 17.2084 7.60948 17.2083 8.11443V19.8855C17.2084 20.3905 17.2085 20.8535 17.1578 21.2301C17.1021 21.6448 16.9709 22.0831 16.6104 22.4437C16.2498 22.8042 15.8115 22.9354 15.3967 22.9911C15.0202 23.0418 14.5572 23.0417 14.0523 23.0417H13.9478C13.4429 23.0417 12.9799 23.0418 12.6033 22.9911C12.1885 22.9354 11.7502 22.8042 11.3897 22.4437C11.0291 22.0831 10.8979 21.6448 10.8422 21.2301C10.7916 20.8534 10.7916 20.3905 10.7917 19.8855V8.11445C10.7916 7.6095 10.7916 7.14653 10.8422 6.76991C10.8979 6.35519 11.0291 5.91684 11.3897 5.55631C11.7502 5.19578 12.1885 5.0646 12.6033 5.00884C12.9799 4.9582 13.4428 4.95826 13.9478 4.95832ZM12.6271 6.79376L12.63 6.79216L12.6272 21.2063L12.6255 21.2034C12.6243 21.2011 12.6224 21.1972 12.62 21.1914C12.6096 21.166 12.5917 21.1095 12.5766 20.9969C12.5435 20.751 12.5417 20.408 12.5417 19.8333V8.16665C12.5417 7.59195 12.5435 7.24894 12.5766 7.0031C12.5917 6.89044 12.6096 6.83402 12.62 6.80861C12.6224 6.80273 12.6243 6.79886 12.6255 6.7966L12.6271 6.79376ZM12.6272 21.2063L12.63 6.79216L12.6344 6.78997L12.642 6.78667C12.6674 6.77622 12.7238 6.75838 12.8364 6.74323C13.0823 6.71018 13.4253 6.70832 14 6.70832C14.5747 6.70832 14.9177 6.71018 15.1636 6.74323C15.2762 6.75838 15.3326 6.77622 15.358 6.78667C15.3639 6.78909 15.3678 6.79098 15.3701 6.79216L15.3729 6.79376L15.3745 6.7966C15.3757 6.79886 15.3776 6.80273 15.38 6.80861C15.3904 6.83402 15.4083 6.89044 15.4234 7.0031C15.4565 7.24894 15.4583 7.59195 15.4583 8.16665V19.8333C15.4583 20.408 15.4565 20.751 15.4234 20.9969C15.4083 21.1095 15.3904 21.166 15.38 21.1914C15.3776 21.1972 15.3757 21.2011 15.3745 21.2034L15.3729 21.2062L15.3701 21.2078C15.3686 21.2086 15.3664 21.2097 15.3634 21.211C15.3618 21.2117 15.3601 21.2125 15.358 21.2133C15.3326 21.2238 15.2762 21.2416 15.1636 21.2567C14.9177 21.2898 14.5747 21.2917 14 21.2917C13.4253 21.2917 13.0823 21.2898 12.8364 21.2567C12.7238 21.2416 12.6674 21.2238 12.642 21.2133C12.6361 21.2109 12.6322 21.209 12.63 21.2078L12.6272 21.2063Z" fill="#B6B6B6"/>
<path fill-rule="evenodd" clip-rule="evenodd" d="M5.78113 9.62498C5.27618 9.62492 4.81321 9.62487 4.4366 9.6755C4.02187 9.73126 3.58353 9.86245 3.223 10.223C2.86247 10.5835 2.73128 11.0219 2.67552 11.4366C2.62489 11.8132 2.62494 12.2762 2.625 12.7811V19.8855C2.62494 20.3905 2.62489 20.8534 2.67552 21.2301C2.73128 21.6448 2.86247 22.0831 3.223 22.4437C3.58353 22.8042 4.02187 22.9354 4.4366 22.9911C4.81321 23.0418 5.27619 23.0417 5.78114 23.0417H5.88554C6.3905 23.0417 6.85347 23.0418 7.23008 22.9911C7.64481 22.9354 8.08316 22.8042 8.44368 22.4437C8.80421 22.0831 8.9354 21.6448 8.99116 21.2301C9.04179 20.8535 9.04174 20.3905 9.04168 19.8855V12.7811C9.04174 12.2762 9.04179 11.8132 8.99116 11.4366C8.9354 11.0219 8.80421 10.5835 8.44368 10.223C8.08316 9.86245 7.64481 9.73126 7.23008 9.6755C6.85347 9.62487 6.3905 9.62492 5.88555 9.62498H5.78113ZM4.46329 11.4588L4.46045 11.4604L4.45885 11.4633C4.45767 11.4655 4.45578 11.4694 4.45336 11.4753C4.44291 11.5007 4.42506 11.5571 4.40992 11.6698C4.37687 11.9156 4.37501 12.2586 4.37501 12.8333V19.8333C4.37501 20.408 4.37687 20.751 4.40992 20.9969C4.42506 21.1095 4.44291 21.166 4.45336 21.1914C4.45578 21.1972 4.45767 21.2011 4.45885 21.2034L4.45998 21.2054L4.46329 21.2078C4.46555 21.209 4.46941 21.2109 4.4753 21.2133C4.50071 21.2238 4.55713 21.2416 4.66978 21.2567C4.91563 21.2898 5.25863 21.2917 5.83334 21.2917C6.40805 21.2917 6.75106 21.2898 6.9969 21.2567C7.10955 21.2416 7.16597 21.2238 7.19138 21.2133C7.19727 21.2109 7.20114 21.209 7.20339 21.2078L7.20623 21.2062L7.20784 21.2034L7.21041 21.1981L7.21332 21.1914C7.22378 21.166 7.24162 21.1095 7.25676 20.9969C7.28982 20.751 7.29167 20.408 7.29167 19.8333V12.8333C7.29167 12.2586 7.28982 11.9156 7.25676 11.6698C7.24162 11.5571 7.22378 11.5007 7.21332 11.4753C7.2109 11.4694 7.20902 11.4655 7.20784 11.4633L7.20623 11.4604L7.20339 11.4588C7.20114 11.4576 7.19727 11.4558 7.19138 11.4533C7.16597 11.4429 7.10955 11.425 6.9969 11.4099C6.75106 11.3768 6.40805 11.375 5.83334 11.375C5.25863 11.375 4.91563 11.3768 4.66978 11.4099C4.55713 11.425 4.50071 11.4429 4.4753 11.4533C4.46941 11.4558 4.46555 11.4576 4.46329 11.4588Z" fill="#B6B6B6"/>
<path d="M3.50001 24.7917C3.01676 24.7917 2.62501 25.1834 2.62501 25.6667C2.62501 26.1499 3.01676 26.5417 3.50001 26.5417H24.5C24.9833 26.5417 25.375 26.1499 25.375 25.6667C25.375 25.1834 24.9833 24.7917 24.5 24.7917H3.50001Z" fill="#B6B6B6"/>
</svg>
