<svg width="21" height="20" viewBox="0 0 21 20" fill="none" xmlns="http://www.w3.org/2000/svg">
<path fill-rule="evenodd" clip-rule="evenodd" d="M7.0359 3.16851C8.7265 2.16734 9.5718 1.66675 10.5 1.66675C11.4282 1.66675 12.2735 2.16734 13.9641 3.16851L14.5359 3.50713C16.2265 4.5083 17.0718 5.00889 17.5359 5.83342C18 6.65794 18 7.65911 18 9.66146V10.3387C18 12.341 18 13.3422 17.5359 14.1667C17.0718 14.9913 16.2265 15.4919 14.5359 16.493L13.9641 16.8317C12.2735 17.8328 11.4282 18.3334 10.5 18.3334C9.5718 18.3334 8.7265 17.8328 7.0359 16.8317L6.4641 16.493C4.7735 15.4919 3.9282 14.9913 3.4641 14.1667C3 13.3422 3 12.341 3 10.3387V9.66146C3 7.65911 3 6.65794 3.4641 5.83342C3.9282 5.00889 4.7735 4.5083 6.4641 3.50713L7.0359 3.16851ZM11.3333 13.3334C11.3333 13.7937 10.9602 14.1667 10.5 14.1667C10.0398 14.1667 9.66667 13.7937 9.66667 13.3334C9.66667 12.8732 10.0398 12.5001 10.5 12.5001C10.9602 12.5001 11.3333 12.8732 11.3333 13.3334ZM10.5 5.20841C10.8452 5.20841 11.125 5.48824 11.125 5.83342V10.8334C11.125 11.1786 10.8452 11.4584 10.5 11.4584C10.1548 11.4584 9.875 11.1786 9.875 10.8334V5.83342C9.875 5.48824 10.1548 5.20841 10.5 5.20841Z" fill="#EC692D"/>
</svg>
