<svg width="18" height="18" viewBox="0 0 18 18" fill="none" xmlns="http://www.w3.org/2000/svg">
<path fill-rule="evenodd" clip-rule="evenodd" d="M10.8352 12.2827L15.2204 7.91072C15.8519 7.28109 16.1677 6.96627 16.334 6.56593C16.5003 6.16561 16.5003 5.72039 16.5003 4.82997V4.40458C16.5003 3.03535 16.5003 2.35073 16.0737 1.92537C15.647 1.5 14.9604 1.5 13.587 1.5H13.1604C12.2672 1.5 11.8207 1.5 11.4191 1.66582C11.0176 1.83165 10.7018 2.14646 10.0703 2.77609L5.68518 7.14808C4.94724 7.88381 4.48967 8.34 4.31249 8.78061C4.25651 8.91983 4.22852 9.0575 4.22852 9.20193C4.22852 9.80349 4.71407 10.2876 5.68517 11.2558L5.81569 11.3859L7.34458 9.83421C7.56262 9.61292 7.91876 9.61029 8.14005 9.82832C8.36134 10.0464 8.36398 10.4025 8.14594 10.6238L6.61239 12.1802L6.71519 12.2827C7.6863 13.2509 8.17185 13.735 8.77522 13.735C8.90853 13.735 9.03609 13.7114 9.16441 13.6641C9.61686 13.4974 10.0787 13.037 10.8352 12.2827ZM12.8954 7.1484C12.3265 7.71556 11.4042 7.71556 10.8353 7.1484C10.2665 6.58125 10.2665 5.66171 10.8353 5.09456C11.4042 4.5274 12.3265 4.5274 12.8954 5.09456C13.4642 5.66171 13.4642 6.58125 12.8954 7.1484Z" fill="#B6B6B6"/>
<g opacity="0.5">
<path d="M6.77572 4.47229L4.86836 6.37392C4.51776 6.72345 4.19616 7.04408 3.94218 7.33392C3.77908 7.52006 3.61609 7.72378 3.47803 7.94888L3.45944 7.93035C3.42417 7.89518 3.4065 7.87757 3.38879 7.86039C3.05727 7.53871 2.66731 7.28296 2.23977 7.10682C2.21692 7.0974 2.19373 7.08821 2.14736 7.06984L1.86337 6.95731C1.47865 6.80487 1.37612 6.3096 1.66886 6.01774C2.50901 5.18013 3.51774 4.17445 4.00456 3.97247C4.43389 3.79433 4.89768 3.73506 5.34498 3.80116C5.75483 3.86173 6.14255 4.07226 6.77572 4.47229Z" fill="#B6B6B6"/>
<path d="M10.0325 14.4849C10.1862 14.6409 10.2883 14.7511 10.3806 14.8688C10.5023 15.0242 10.6112 15.1892 10.7061 15.3622C10.8129 15.557 10.8959 15.765 11.0617 16.1811C11.1968 16.5199 11.6454 16.6094 11.9059 16.3496L11.9689 16.2868C12.8091 15.4491 13.8178 14.4434 14.0204 13.9581C14.199 13.53 14.2585 13.0676 14.1922 12.6217C14.1315 12.2131 13.9203 11.8266 13.5192 11.1955L11.6055 13.1035C11.2469 13.4609 10.9182 13.7887 10.6209 14.0455C10.4427 14.1994 10.2478 14.3532 10.0325 14.4849Z" fill="#B6B6B6"/>
</g>
</svg>
