<svg width="28" height="28" viewBox="0 0 28 28" fill="none" xmlns="http://www.w3.org/2000/svg">
<path opacity="0.6" d="M17.5002 2.33331H16.3335C13.0337 2.33331 11.3837 2.33331 10.3586 3.35844C9.3335 4.38357 9.3335 6.03348 9.3335 9.33331V18.6666C9.3335 21.9665 9.3335 23.6164 10.3586 24.6415C11.3837 25.6666 13.0337 25.6666 16.3335 25.6666H17.5002C20.8 25.6666 22.4499 25.6666 23.475 24.6415C24.5002 23.6164 24.5002 21.9665 24.5002 18.6666V9.33331C24.5002 6.03348 24.5002 4.38357 23.475 3.35844C22.4499 2.33331 20.8 2.33331 17.5002 2.33331Z" fill="#D9302C"/>
<path opacity="0.4" d="M9.33333 9.33333C9.33333 7.53957 9.33333 6.23335 9.498 5.25H9.33333C6.58347 5.25 5.20854 5.25 4.35427 6.10427C3.5 6.95854 3.5 8.33347 3.5 11.0833V16.9167C3.5 19.6665 3.5 21.0415 4.35427 21.8957C5.20854 22.75 6.58347 22.75 9.33333 22.75H9.498C9.33333 21.7666 9.33333 20.4604 9.33333 18.6667V14.875V13.125V9.33333Z" fill="#D9302C"/>
<path fill-rule="evenodd" clip-rule="evenodd" d="M16.9522 13.3813C17.2939 13.723 17.2939 14.277 16.9522 14.6187L14.6189 16.9521C14.2772 17.2938 13.7232 17.2938 13.3814 16.9521C13.0397 16.6104 13.0397 16.0563 13.3814 15.7146L14.2211 14.875L5.8335 14.875C5.35025 14.875 4.9585 14.4833 4.9585 14C4.9585 13.5168 5.35025 13.125 5.8335 13.125L14.2211 13.125L13.3814 12.2854C13.0397 11.9437 13.0397 11.3897 13.3814 11.048C13.7232 10.7063 14.2772 10.7063 14.6189 11.048L16.9522 13.3813Z" fill="#D9302C"/>
</svg>
