<svg width="28" height="28" viewBox="0 0 28 28" fill="none" xmlns="http://www.w3.org/2000/svg">
<path d="M16.5447 4.98816C17.0114 5.11324 17.2885 5.59303 17.1634 6.05981L12.5275 23.3611C12.4024 23.8279 11.9226 24.1049 11.4559 23.9799C10.9891 23.8548 10.7121 23.375 10.8371 22.9082L15.473 5.60688C15.5981 5.1401 16.0779 4.86309 16.5447 4.98816Z" fill="#B6B6B6"/>
<path d="M19.1832 8.54919C19.5065 8.18999 20.0597 8.16088 20.4189 8.48415L22.446 10.3085C23.3051 11.0816 24.0177 11.7229 24.507 12.3046C25.0215 12.9162 25.3873 13.5734 25.3873 14.3845C25.3873 15.1957 25.0215 15.8528 24.507 16.4645C24.0177 17.0461 23.3051 17.6874 22.446 18.4605L20.4189 20.2849C20.0597 20.6082 19.5065 20.5791 19.1832 20.2199C18.8599 19.8607 18.889 19.3074 19.2482 18.9842L21.2274 17.2029C22.1466 16.3756 22.7664 15.8151 23.1678 15.3379C23.5531 14.8799 23.6373 14.6125 23.6373 14.3845C23.6373 14.1565 23.5531 13.8892 23.1678 13.4312C22.7664 12.9539 22.1466 12.3935 21.2274 11.5662L19.2482 9.78492C18.889 9.46164 18.8599 8.90839 19.1832 8.54919Z" fill="#B6B6B6"/>
<path d="M8.75232 9.78492C9.11151 9.46164 9.14063 8.90839 8.81735 8.54919C8.49408 8.18999 7.94082 8.16088 7.58163 8.48415L5.55456 10.3085C4.69549 11.0816 3.98289 11.7229 3.49357 12.3046C2.97904 12.9162 2.61328 13.5734 2.61328 14.3845C2.61328 15.1957 2.97904 15.8528 3.49357 16.4645C3.98288 17.0461 4.69548 17.6874 5.55453 18.4605L7.58163 20.2849C7.94082 20.6082 8.49408 20.5791 8.81735 20.2199C9.14063 19.8607 9.11151 19.3074 8.75232 18.9842L6.7731 17.2029C5.85391 16.3756 5.23418 15.8151 4.83273 15.3379C4.44744 14.8799 4.36328 14.6125 4.36328 14.3845C4.36328 14.1565 4.44744 13.8892 4.83273 13.4312C5.23418 12.9539 5.85391 12.3935 6.7731 11.5662L8.75232 9.78492Z" fill="#B6B6B6"/>
</svg>
