<svg width="28" height="28" viewBox="0 0 28 28" fill="none" xmlns="http://www.w3.org/2000/svg">
<path opacity="0.5" d="M25.6668 14C25.6668 20.4433 20.4435 25.6667 14.0002 25.6667C7.55684 25.6667 2.3335 20.4433 2.3335 14C2.3335 7.55668 7.55684 2.33333 14.0002 2.33333C20.4435 2.33333 25.6668 7.55668 25.6668 14Z" fill="#D9302C"/>
<path d="M14.875 10.5C14.875 10.0168 14.4832 9.625 14 9.625C13.5168 9.625 13.125 10.0168 13.125 10.5L13.125 13.125H10.5C10.0168 13.125 9.625 13.5168 9.625 14C9.625 14.4833 10.0168 14.875 10.5 14.875H13.125V17.5C13.125 17.9832 13.5167 18.375 14 18.375C14.4832 18.375 14.875 17.9832 14.875 17.5L14.875 14.875H17.5C17.9832 14.875 18.375 14.4833 18.375 14C18.375 13.5168 17.9832 13.125 17.5 13.125H14.875V10.5Z" fill="#D9302C"/>
</svg>
