<svg width="28" height="28" viewBox="0 0 28 28" fill="none" xmlns="http://www.w3.org/2000/svg">
<path d="M14.0002 9.04168C13.2753 9.04168 12.6877 9.6293 12.6877 10.3542C12.6877 10.8374 12.2959 11.2292 11.8127 11.2292C11.3294 11.2292 10.9377 10.8374 10.9377 10.3542C10.9377 8.6628 12.3088 7.29168 14.0002 7.29168C15.6915 7.29168 17.0627 8.6628 17.0627 10.3542C17.0627 11.4781 16.4568 12.4595 15.558 12.9913C15.3284 13.1271 15.1389 13.2754 15.0155 13.4208C14.8956 13.5621 14.8752 13.6542 14.8752 13.7083V15.1667C14.8752 15.6499 14.4834 16.0417 14.0002 16.0417C13.5169 16.0417 13.1252 15.6499 13.1252 15.1667V13.7083C13.1252 13.1181 13.3836 12.6393 13.6812 12.2885C13.9752 11.942 14.3419 11.6774 14.6669 11.4851C15.0553 11.2553 15.3127 10.8343 15.3127 10.3542C15.3127 9.6293 14.725 9.04168 14.0002 9.04168Z" fill="#B6B6B6"/>
<path d="M14.0002 19.8333C14.6445 19.8333 15.1668 19.311 15.1668 18.6667C15.1668 18.0223 14.6445 17.5 14.0002 17.5C13.3558 17.5 12.8335 18.0223 12.8335 18.6667C12.8335 19.311 13.3558 19.8333 14.0002 19.8333Z" fill="#B6B6B6"/>
<path fill-rule="evenodd" clip-rule="evenodd" d="M13.9332 1.45834H14.0671C16.7602 1.45833 18.8708 1.45832 20.5175 1.67972C22.203 1.90633 23.5331 2.37923 24.577 3.42317C25.6209 4.46711 26.0938 5.79714 26.3205 7.48267C26.5419 9.1294 26.5418 11.2399 26.5418 13.9331V14.0669C26.5418 16.7601 26.5419 18.8706 26.3205 20.5174C26.0938 22.2029 25.6209 23.5329 24.577 24.5769C23.5331 25.6208 22.203 26.0937 20.5175 26.3203C18.8708 26.5417 16.7602 26.5417 14.0671 26.5417H13.9332C11.2401 26.5417 9.12956 26.5417 7.48282 26.3203C5.79729 26.0937 4.46727 25.6208 3.42332 24.5769C2.37938 23.5329 1.90648 22.2029 1.67987 20.5174C1.45847 18.8706 1.45848 16.7601 1.4585 14.067V13.9331C1.45848 11.24 1.45847 9.1294 1.67987 7.48267C1.90648 5.79714 2.37938 4.46711 3.42332 3.42317C4.46727 2.37923 5.79729 1.90633 7.48282 1.67972C9.12955 1.45832 11.2401 1.45833 13.9332 1.45834ZM7.716 3.41411C6.22453 3.61463 5.32536 3.99601 4.66076 4.66061C3.99616 5.32521 3.61479 6.22438 3.41426 7.71585C3.21036 9.23249 3.2085 11.2254 3.2085 14C3.2085 16.7746 3.21036 18.7675 3.41426 20.2842C3.61479 21.7756 3.99616 22.6748 4.66076 23.3394C5.32536 24.004 6.22453 24.3854 7.716 24.5859C9.23264 24.7898 11.2256 24.7917 14.0002 24.7917C16.7748 24.7917 18.7677 24.7898 20.2843 24.5859C21.7758 24.3854 22.675 24.004 23.3396 23.3394C24.0042 22.6748 24.3855 21.7756 24.5861 20.2842C24.79 18.7675 24.7918 16.7746 24.7918 14C24.7918 11.2254 24.79 9.23249 24.5861 7.71585C24.3855 6.22438 24.0042 5.32521 23.3396 4.66061C22.675 3.99601 21.7758 3.61463 20.2843 3.41411C18.7677 3.2102 16.7748 3.20834 14.0002 3.20834C11.2256 3.20834 9.23264 3.2102 7.716 3.41411Z" fill="#B6B6B6"/>
</svg>
