<svg width="27" height="26" viewBox="0 0 27 26" fill="none" xmlns="http://www.w3.org/2000/svg">
<path d="M14.1868 9.75002C14.1868 9.30129 13.8231 8.93752 13.3743 8.93752C12.9256 8.93752 12.5618 9.30129 12.5618 9.75002L12.5618 12.1875H10.1243C9.67562 12.1875 9.31185 12.5513 9.31185 13C9.31185 13.4488 9.67562 13.8125 10.1243 13.8125H12.5618V16.25C12.5618 16.6988 12.9256 17.0625 13.3743 17.0625C13.8231 17.0625 14.1868 16.6988 14.1868 16.25L14.1868 13.8125H16.6243C17.0731 13.8125 17.4368 13.4488 17.4368 13C17.4368 12.5513 17.0731 12.1875 16.6243 12.1875H14.1868V9.75002Z" fill="#444444"/>
<path fill-rule="evenodd" clip-rule="evenodd" d="M13.3743 1.35419C6.94253 1.35419 1.72852 6.5682 1.72852 13C1.72852 19.4318 6.94253 24.6459 13.3743 24.6459C19.8062 24.6459 25.0202 19.4318 25.0202 13C25.0202 6.5682 19.8062 1.35419 13.3743 1.35419ZM3.35352 13C3.35352 7.46567 7.84 2.97919 13.3743 2.97919C18.9087 2.97919 23.3952 7.46567 23.3952 13C23.3952 18.5344 18.9087 23.0209 13.3743 23.0209C7.84 23.0209 3.35352 18.5344 3.35352 13Z" fill="#444444"/>
</svg>
