<svg width="6" height="6" viewBox="0 0 6 6" fill="none" xmlns="http://www.w3.org/2000/svg">
<path d="M5.35355 1.0202C5.54882 0.824938 5.54882 0.508356 5.35355 0.313094C5.15829 0.117831 4.84171 0.117831 4.64645 0.313094L3 1.95954L1.35355 0.313094C1.15829 0.117831 0.841709 0.117831 0.646447 0.313094C0.451185 0.508356 0.451185 0.824938 0.646447 1.0202L2.64645 3.0202C2.84171 3.21546 3.15829 3.21546 3.35355 3.0202L5.35355 1.0202Z" fill="#FF3B30"/>
<path d="M5.35355 3.68687C5.54882 3.4916 5.54882 3.17502 5.35355 2.97976C5.15829 2.7845 4.84171 2.7845 4.64645 2.97976L3 4.62621L1.35355 2.97976C1.15829 2.7845 0.841709 2.7845 0.646447 2.97976C0.451185 3.17502 0.451185 3.4916 0.646447 3.68687L2.64645 5.68687C2.84171 5.88213 3.15829 5.88213 3.35355 5.68687L5.35355 3.68687Z" fill="#FF3B30"/>
</svg>
