<svg width="6" height="6" viewBox="0 0 6 6" fill="none" xmlns="http://www.w3.org/2000/svg">
<path d="M0.646447 4.9798C0.451184 5.17506 0.451184 5.49164 0.646447 5.68691C0.841709 5.88217 1.15829 5.88217 1.35355 5.68691L3 4.04046L4.64645 5.68691C4.84171 5.88217 5.15829 5.88217 5.35355 5.68691C5.54882 5.49164 5.54882 5.17506 5.35355 4.9798L3.35355 2.9798C3.15829 2.78454 2.84171 2.78454 2.64645 2.9798L0.646447 4.9798Z" fill="#34C759"/>
<path d="M0.646447 2.31313C0.451184 2.5084 0.451184 2.82498 0.646447 3.02024C0.841709 3.2155 1.15829 3.2155 1.35355 3.02024L3 1.37379L4.64645 3.02024C4.84171 3.2155 5.15829 3.2155 5.35355 3.02024C5.54882 2.82498 5.54882 2.5084 5.35355 2.31313L3.35355 0.313134C3.15829 0.117871 2.84171 0.117871 2.64645 0.313134L0.646447 2.31313Z" fill="#34C759"/>
</svg>
