<svg width="29" height="28" viewBox="0 0 29 28" fill="none" xmlns="http://www.w3.org/2000/svg">
<path fill-rule="evenodd" clip-rule="evenodd" d="M12.6374 26.2275L12.9583 25.6853C13.4726 24.8165 13.7298 24.382 14.1394 24.1397C14.549 23.8974 15.0833 23.8803 16.152 23.8461C17.154 23.8141 17.8275 23.7266 18.4033 23.4881C19.6157 22.9859 20.5789 22.0227 21.081 20.8104C21.4577 19.9011 21.4577 18.7484 21.4577 16.443V15.4535C21.4577 12.2142 21.4577 10.5946 20.7286 9.40476C20.3206 8.73901 19.7608 8.17926 19.0951 7.77128C17.9053 7.04218 16.2857 7.04218 13.0464 7.04218H10.0778C6.8385 7.04218 5.21887 7.04218 4.02908 7.77128C3.36333 8.17926 2.80358 8.73901 2.39561 9.40476C1.6665 10.5946 1.6665 12.2142 1.6665 15.4535V16.443C1.6665 18.7484 1.6665 19.9011 2.04313 20.8104C2.5453 22.0227 3.50851 22.9859 4.72086 23.4881C5.29668 23.7266 5.97013 23.8141 6.97215 23.8461C8.0408 23.8803 8.57512 23.8974 8.98475 24.1397C9.39438 24.382 9.65154 24.8165 10.1658 25.6853L10.4867 26.2275C10.9649 27.0353 12.1593 27.0353 12.6374 26.2275ZM15.8914 16.9378C16.5746 16.9378 17.1284 16.384 17.1284 15.7008C17.1284 15.0177 16.5746 14.4639 15.8914 14.4639C15.2083 14.4639 14.6545 15.0177 14.6545 15.7008C14.6545 16.384 15.2083 16.9378 15.8914 16.9378ZM12.799 15.7008C12.799 16.384 12.2452 16.9378 11.5621 16.9378C10.8789 16.9378 10.3251 16.384 10.3251 15.7008C10.3251 15.0177 10.8789 14.4639 11.5621 14.4639C12.2452 14.4639 12.799 15.0177 12.799 15.7008ZM7.23277 16.9378C7.91592 16.9378 8.46972 16.384 8.46972 15.7008C8.46972 15.0177 7.91592 14.4639 7.23277 14.4639C6.54962 14.4639 5.99582 15.0177 5.99582 15.7008C5.99582 16.384 6.54962 16.9378 7.23277 16.9378Z" fill="#D9302C"/>
<path opacity="0.5" d="M18.5672 1.16669C20.0452 1.16668 21.2205 1.16667 22.1632 1.2563C23.1297 1.3482 23.9469 1.54083 24.6749 1.98694C25.4239 2.44591 26.0536 3.07563 26.5125 3.8246C26.9586 4.55258 27.1513 5.36978 27.2432 6.33632C27.3328 7.27893 27.3328 8.45436 27.3328 9.93235V10.9418C27.3328 11.9937 27.3328 12.8304 27.2865 13.5089C27.2391 14.203 27.1402 14.799 26.9091 15.3571C26.3441 16.721 25.2605 17.8046 23.8966 18.3696C23.8625 18.3837 23.8282 18.3973 23.7938 18.4105C23.6292 18.4734 23.4881 18.5274 23.3643 18.5675H21.4391C21.458 17.9853 21.458 17.292 21.458 16.4419V15.4523C21.458 12.2131 21.458 10.5934 20.7289 9.40362C20.3209 8.73787 19.7612 8.17812 19.0954 7.77015C17.9056 7.04104 16.286 7.04104 13.0468 7.04104H10.0781C8.92843 7.04104 7.9828 7.04104 7.18799 7.07363V5.14817C7.22615 5.01592 7.27843 4.86434 7.33981 4.6864C7.44419 4.38378 7.57611 4.09757 7.74338 3.8246C8.20235 3.07562 8.83207 2.44591 9.58104 1.98694C10.309 1.54083 11.1262 1.3482 12.0928 1.2563C13.0354 1.16667 14.2107 1.16668 15.6888 1.16669H18.5672Z" fill="#D9302C"/>
</svg>
