<svg width="20" height="20" viewBox="0 0 20 20" fill="none" xmlns="http://www.w3.org/2000/svg">
<g clip-path="url(#clip0_416_414)">
<path d="M19.6042 0.395794L15.3681 1.56165C13.7783 0.546493 11.9318 0 9.99917 0C4.48621 0 0 4.48621 0 9.99917C0 12.6704 1.03999 15.1809 2.92954 17.0705L5.6057 14.3943C4.43156 13.2202 3.78571 11.6585 3.78571 9.99917C3.78571 6.57117 6.57448 3.7824 10.0025 3.7824C11.6635 3.7824 13.2235 4.42991 14.3976 5.60239L17.0738 2.92788L19.6075 0.394138L19.6042 0.395794Z" fill="#D9302C"/>
<path d="M11.8906 8.10798L8.10818 11.892H15.9214C15.1199 14.3976 12.7683 16.2159 9.99938 16.2159C8.33837 16.2159 6.77838 15.5701 5.60424 14.396L4.46489 15.5353L0.395996 19.6042L4.37712 18.2711C6.02157 19.3939 7.9641 20 9.99938 20C15.514 20 19.9985 15.5138 19.9985 10.0008V8.10963H11.8906V8.10798Z" fill="#EC692D"/>
<path d="M9.99937 16.2159C8.33837 16.2159 6.77838 15.5701 5.60424 14.396L4.46489 15.5353L0.395996 19.6042L4.37712 18.2711C6.02157 19.3939 7.9641 20 9.99937 20C11.879 20 13.6377 19.4783 15.1414 18.5725C15.7657 17.3106 16.1184 15.8897 16.1184 14.3844C16.1184 13.6027 16.0224 12.8443 15.8435 12.1172C14.9758 14.5053 12.6838 16.2143 9.99937 16.2143V16.2159Z" fill="#EAA23F"/>
<path d="M8.1084 11.892H15.7841C15.3966 10.4695 14.6845 9.17943 13.7323 8.10798H11.8908L8.1084 11.892Z" fill="#EAA23F"/>
<path d="M15.3664 1.56165C13.7782 0.546493 11.9318 0 9.99916 0C9.67292 0 9.35165 0.0165604 9.03369 0.0480252C9.18936 1.42254 9.66961 2.69935 10.3966 3.7973C11.9069 3.8917 13.3162 4.5243 14.396 5.60404L17.0721 2.92954L19.6059 0.395794L15.3697 1.56165H15.3664Z" fill="#EC692D"/>
</g>
<defs>
<clipPath id="clip0_416_414">
<rect width="20" height="20" fill="white"/>
</clipPath>
</defs>
</svg>
