<svg width="59" height="42" viewBox="0 0 59 42" fill="none" xmlns="http://www.w3.org/2000/svg">
<g clip-path="url(#clip0_416_389)">
<path fill-rule="evenodd" clip-rule="evenodd" d="M23.0116 32.8235C22.7292 22.5318 18.7622 12.6494 11.7739 4.98353C11.7739 4.98353 16.6304 3.31765 26.3433 -0.0141182C26.9645 0.77647 27.5575 1.58118 28.108 2.41412C28.2916 3.37412 28.461 4.34823 28.588 5.30823C28.1504 4.57412 27.6986 3.85412 27.2186 3.16235C26.6539 3.75529 25.821 3.99529 25.0304 3.81176C24.2398 3.62823 23.6045 3.02118 23.3786 2.24471H23.3645H23.3504H23.3363H23.3222H23.308H23.2939H23.2798H23.2657H23.2516H23.2375H23.2233H23.2092H23.1951H23.181H23.1669C21.1763 2.93647 19.1716 3.62823 17.1669 4.30588C17.6186 4.88471 17.788 5.64706 17.6045 6.35294C17.421 7.07294 16.9127 7.65176 16.2351 7.94823C21.0351 14.6118 23.8869 22.4894 24.4657 30.6776C24.1269 31.3412 23.7739 31.9906 23.3927 32.6259" fill="#D9302C"/>
<path fill-rule="evenodd" clip-rule="evenodd" d="M25.1579 10.8C26.372 10.3482 27.7838 10.8424 28.9414 11.9576C28.8849 14.2165 28.659 16.4612 28.2496 18.6918C28.0802 19.6518 27.8685 20.5976 27.6285 21.5435C25.9908 21.2753 24.3249 19.6941 23.492 17.4353C22.419 14.4988 23.1673 11.5341 25.1579 10.8Z" fill="#EAA23F"/>
<path fill-rule="evenodd" clip-rule="evenodd" d="M20.6966 34.4047C15.6284 27.5859 8.55547 22.4188 0.381348 19.7082C0.381348 19.7082 3.68488 16.0094 10.3061 8.61176C12.0708 9.34588 13.779 10.1929 15.4166 11.1388C15.8543 11.8306 16.2778 12.5224 16.6872 13.2282C15.3461 12.3671 13.9625 11.5765 12.5366 10.8706C12.339 11.6329 11.7602 12.24 10.9978 12.4518C10.2355 12.6635 9.43076 12.4518 8.86605 11.9153V11.9294V11.9435V11.9576V11.9718V11.9859V12V12.0141V12.0424V12.0706V12.0988V12.1271V12.1553V12.1835V12.2118V12.24C7.51076 13.7647 6.14135 15.2894 4.78605 16.8C5.44958 17.0682 5.9437 17.6329 6.12723 18.3247C6.31076 19.0165 6.15547 19.7506 5.71782 20.3153C12.339 23.3929 18.0566 28.1224 22.3343 34.0376C21.9249 34.1224 21.5155 34.1929 21.1061 34.2776" fill="#D9302C"/>
<path fill-rule="evenodd" clip-rule="evenodd" d="M14.4141 18.2965C15.36 17.1812 17.1247 17.0259 18.8894 17.7318C20.033 20.4706 20.88 23.3082 21.4306 26.2306C19.9341 26.6965 17.8588 26.1459 16.1365 24.6776C13.8494 22.7153 13.073 19.8494 14.4141 18.2824" fill="#EAA23F"/>
<path fill-rule="evenodd" clip-rule="evenodd" d="M23.4351 33.8682C29.3221 24.1271 31.2562 12.4659 28.7856 1.31294C28.7856 1.31294 33.9951 2.32941 44.3998 4.34824C45.0915 9.24706 45.0209 14.1741 44.2162 18.9741C43.8633 18.7482 43.468 18.5929 43.0586 18.5788C43.6374 14.9647 43.8068 11.2941 43.5386 7.63765C42.7339 7.87765 41.8586 7.66588 41.2515 7.08706C40.6445 6.50824 40.3762 5.64706 40.5739 4.82824H40.5598H40.5456H40.5315H40.5174H40.5033H40.4892H40.4751H40.4609H40.4468H40.4327H40.4186H40.4045H40.3904H40.3762H40.3621H40.348H40.3339H40.3198H40.3056C38.1598 4.40471 36.028 3.9953 33.8821 3.57177C33.9951 4.32 33.7409 5.08235 33.2186 5.63294C32.6821 6.18353 31.9339 6.43765 31.1715 6.35294C32.1456 15.8118 30.1268 25.3553 25.3974 33.6424C24.8609 33.7553 24.3386 33.8682 23.8021 33.9812" fill="#D9302C"/>
<path fill-rule="evenodd" clip-rule="evenodd" d="M37.7645 13.3976C39.9245 13.7788 41.2375 16.6588 40.6869 19.8353C40.1363 23.0118 37.9339 25.2847 35.7739 24.9176C33.6139 24.5365 32.301 21.6565 32.8516 18.48C33.4022 15.3035 35.6045 13.0306 37.7645 13.3976Z" fill="#EAA23F"/>
<path fill-rule="evenodd" clip-rule="evenodd" d="M51.0068 26.5271C51.1904 27.1624 50.8092 27.84 50.1739 28.0235H50.2304C50.8798 27.8259 51.5715 28.2071 51.7551 28.8565C51.9386 29.5059 51.5574 30.1976 50.908 30.3812L50.6821 30.4518C51.3174 30.2682 51.9951 30.6494 52.1786 31.2847C52.3621 31.92 51.9809 32.5976 51.3457 32.7812L50.668 32.9647C51.2751 32.7953 52.0092 33.1341 52.0939 33.7694C52.2633 35.1671 48.7904 36.5224 47.8021 36.8047C46.8845 37.0588 45.9527 37.1012 45.0774 36.9741C41.6609 36.4376 43.7927 35.76 39.6421 36.9035C29.9009 39.5859 9.11977 44.6965 2.30095 40.2918C0.268007 38.9788 -0.508463 36.5647 0.437419 34.32C2.07507 30.4518 8.32918 27.7976 11.5057 26.4282C5.84448 30.0141 -0.169639 36.0847 6.26801 36.6494C11.8727 37.1435 22.4327 35.4776 37.7221 31.2988C38.908 30.9741 39.5715 29.6894 39.8821 28.5882C40.4751 26.4141 41.9574 24.7765 42.3668 22.56C42.6351 21.0918 41.9715 20.5271 42.1974 20.0047C42.8327 18.6212 45.1621 20.0471 45.3174 22.56C45.4586 24.7624 44.4421 26.8659 45.741 26.2588C46.9409 25.7224 50.5268 24.6494 51.0492 26.5412" fill="url(#paint0_linear_416_389)"/>
<path fill-rule="evenodd" clip-rule="evenodd" d="M50.0327 4.53176C50.4139 8.76706 49.6798 8.03294 53.9151 8.41412C49.6798 8.79529 50.4139 8.06118 50.0327 12.2965C49.6657 8.06118 50.3998 8.79529 46.1504 8.41412C50.3857 8.04706 49.6516 8.76706 50.0327 4.53176Z" fill="#EAA23F"/>
<path fill-rule="evenodd" clip-rule="evenodd" d="M55.9763 8.92235C56.2587 12.1976 55.694 11.6188 58.9693 11.9153C55.7081 12.1976 56.2728 11.6329 55.9763 14.9082C55.694 11.6329 56.2587 12.2118 52.9834 11.9153C56.2587 11.6329 55.6799 12.1976 55.9763 8.92235Z" fill="#EAA23F"/>
<path fill-rule="evenodd" clip-rule="evenodd" d="M52.2354 16.2212C52.6166 20.4565 51.8824 19.7224 56.1177 20.1035C51.8824 20.4706 52.6166 19.7506 52.2354 23.9859C51.8542 19.7506 52.5883 20.4847 48.353 20.1035C52.5883 19.7224 51.8542 20.4565 52.2354 16.2212Z" fill="#EAA23F"/>
</g>
<defs>
<linearGradient id="paint0_linear_416_389" x1="52.2248" y1="30.7402" x2="0.0375977" y2="30.7402" gradientUnits="userSpaceOnUse">
<stop stop-color="#D9302C"/>
<stop offset="1" stop-color="#EAA23F"/>
</linearGradient>
<clipPath id="clip0_416_389">
<rect width="58.9694" height="42" fill="white"/>
</clipPath>
</defs>
</svg>
